<?xml version="1.0" encoding="UTF-8" standalone="no"?>
<svg
   viewBox="0 0 216.41507 232.00976"
   version="1.1"
   id="svg6"
   sodipodi:docname="logo_alt.svg"
   inkscape:version="1.1.2 (0a00cf5339, 2022-02-04, custom)"
   xmlns:inkscape="http://www.inkscape.org/namespaces/inkscape"
   xmlns:sodipodi="http://sodipodi.sourceforge.net/DTD/sodipodi-0.dtd"
   xmlns="http://www.w3.org/2000/svg"
   xmlns:svg="http://www.w3.org/2000/svg">
  <defs
     id="defs10" />
  <sodipodi:namedview
     id="namedview8"
     pagecolor="#ffffff"
     bordercolor="#666666"
     borderopacity="1.0"
     inkscape:pageshadow="2"
     inkscape:pageopacity="0.0"
     inkscape:pagecheckerboard="0"
     showgrid="false"
     inkscape:zoom="3.560195"
     inkscape:cx="108.28059"
     inkscape:cy="115.86444"
     inkscape:window-width="3440"
     inkscape:window-height="1403"
     inkscape:window-x="0"
     inkscape:window-y="0"
     inkscape:window-maximized="1"
     inkscape:current-layer="svg6" />
  <path
     d="M211.80683 139.0875c-3.1825 16.36625-28.4925 34.2775-57.5625 37.74875-15.16 1.80875-30.0825 3.47125-45.99875 2.74125-26.0275-1.1925-46.565-6.2125-46.565-6.2125 0 2.53375.15625 4.94625.46875 7.2025 3.38375 25.68625 25.47 27.225 46.3925 27.9425 21.115.7225 39.91625-5.20625 39.91625-5.20625l.86875 19.09s-14.77 7.93125-41.08125 9.39c-14.50875.7975-32.52375-.365-53.50625-5.91875C9.23183 213.82 1.40558 165.31125.20808 116.09125c-.36375-14.61375-.14-28.39375-.14-39.91875 0-50.33 32.97625-65.0825 32.97625-65.0825C49.67058 3.45375 78.20308.2425 107.86433 0h.72875c29.66125.2425 58.21125 3.45375 74.8375 11.09 0 0 32.97625 14.7525 32.97625 65.0825 0 0 .4125 37.13375-4.6 62.915"
     fill="#3088d4"
     id="path2"
     style="fill:#f44336;fill-opacity:1" />
  <path
     d="M65.68743 96.45938c0 9.01375-7.3075 16.32125-16.3225 16.32125-9.01375 0-16.32-7.3075-16.32-16.32125 0-9.01375 7.30625-16.3225 16.32-16.3225 9.015 0 16.3225 7.30875 16.3225 16.3225M124.52893 96.45938c0 9.01375-7.30875 16.32125-16.3225 16.32125-9.01375 0-16.32125-7.3075-16.32125-16.32125 0-9.01375 7.3075-16.3225 16.32125-16.3225 9.01375 0 16.3225 7.30875 16.3225 16.3225M183.36933 96.45938c0 9.01375-7.3075 16.32125-16.32125 16.32125-9.01375 0-16.32125-7.3075-16.32125-16.32125 0-9.01375 7.3075-16.3225 16.32125-16.3225 9.01375 0 16.32125 7.30875 16.32125 16.3225"
     fill="#fff"
     id="path4" />
</svg>
